<svg width="47" height="55" viewBox="0 0 47 55" fill="none" xmlns="http://www.w3.org/2000/svg">
<path d="M13.2424 24.6479C13.8327 25.6674 14.59 26.642 15.5144 27.4599C16.4277 28.2777 17.508 28.9386 18.6552 29.3419C19.9582 29.8237 21.2056 29.8461 22.0409 29.678C22.8763 29.454 23.3329 29.0955 23.2438 28.5801C23.0879 27.6167 21.5732 27.0341 19.8803 26.1939C18.3322 25.4321 17.2184 24.0878 16.4834 22.4522C15.7372 20.8166 15.3585 18.9345 15.1469 17.0188C15.0578 16.2458 15.0132 15.4616 15.0021 14.6774C14.9909 14.2853 14.9909 13.8932 15.0021 13.5123L15.0244 12.941L15.0689 12.2912L15.158 11.1709C15.1691 10.79 15.2917 10.4539 15.3473 10.0842L15.4476 9.5465L15.6146 9.04237C15.7372 8.70628 15.804 8.34779 15.9822 8.05652C16.5391 6.77939 17.43 5.71512 18.5883 4.96453C19.7355 4.19153 21.1722 3.75462 22.6201 3.60899C23.9232 3.68741 25.2485 3.97868 26.3845 4.48281C27.5317 4.98694 28.5007 5.68151 29.2246 6.56654C29.9597 7.45156 30.4497 8.53824 30.7838 9.72574C30.8729 10.3307 31.0511 10.7676 31.0957 11.619L31.2071 12.7617C31.2293 13.0418 31.2516 13.4115 31.2627 13.7476C31.3407 16.5259 31.0289 19.4162 30.0042 21.7576C29.7481 22.3402 29.4473 22.8779 29.1021 23.3708C28.7568 23.8525 28.367 24.267 27.9327 24.6367C27.0639 25.3201 26.0059 25.8018 24.8587 25.9475C24.7696 25.9587 24.6694 25.9923 24.558 26.0483C24.4466 26.1043 24.3575 26.1827 24.1905 26.2611C23.8898 26.4068 23.6113 26.586 23.4888 26.7317C22.9876 27.2918 23.7116 27.7623 24.7362 27.9976C25.5827 28.1992 26.5405 28.1992 27.5206 28.02C28.5118 27.8408 29.5142 27.3814 30.4163 26.7317C32.2428 25.4097 33.5014 23.27 34.1808 21.0966C35.0049 18.4528 35.2834 15.7641 35.2388 13.0418C35.2388 12.7169 35.2054 12.3024 35.1831 12.0111L35.1163 11.0589C35.1163 10.4763 34.927 9.64732 34.7933 8.91914C34.7376 8.53824 34.604 8.19095 34.4926 7.83246C34.3701 7.47397 34.2699 7.12668 34.1251 6.76819C33.7798 6.08482 33.4902 5.37904 33.0113 4.75168C32.1426 3.46335 30.9509 2.34307 29.5921 1.59247C28.2445 0.83068 26.7744 0.348958 25.3042 0.147306C24.5691 0.0352779 23.8229 -0.00953346 23.099 0.00166939C22.3194 0.0128722 21.5954 0.102495 20.8604 0.248132C19.4014 0.539406 17.9424 1.08835 16.6504 1.95097C15.3362 2.73516 14.1222 3.79944 13.2646 5.11017C11.8613 7.16029 11.271 9.53529 11.0928 11.7647L11.0483 12.1904L11.026 12.4032C11.0149 12.5153 11.0372 12.2576 11.0372 12.28V12.2912V12.3024V12.3248L11.026 12.3808L11.0149 12.504C10.9926 12.7953 10.9703 13.0642 10.9592 13.3443C10.9369 13.8932 10.9258 14.4309 10.9258 14.9687C10.9369 16.0554 11.0149 17.1308 11.1708 18.2175C11.4715 20.3909 12.0618 22.5978 13.2424 24.6479Z" fill="#FFFDFD"/>
<path d="M46.9555 42.8974C46.9332 42.2588 46.8775 41.5866 46.7884 40.9033C46.5991 39.5365 46.1981 38.0577 45.3071 36.6686C44.4161 35.2794 42.946 34.1815 41.4424 33.6774L41.4201 33.6662C41.3756 33.655 41.3199 33.6326 41.2754 33.6214C38.7694 32.9716 36.3081 31.8738 34.036 30.5182C33.4903 30.2045 32.4545 30.0029 32.0536 30.0589C31.8642 30.0925 31.7306 30.1597 31.6637 30.2717C31.5969 30.3838 31.5969 30.5294 31.6415 30.6975C31.7417 31.0447 32.0758 31.5041 32.5436 31.9746C34.4927 33.9911 37.1768 35.8172 40.44 36.9598L40.3398 36.9262C41.654 37.5536 42.4448 38.6067 42.8235 40.1191C43.1353 41.2505 43.1576 42.5949 43.1353 43.9616C43.113 44.6338 43.0685 45.3284 43.0017 45.9781C42.9682 46.303 42.9237 46.6279 42.8569 46.9192C42.8457 46.964 42.8457 46.9976 42.8346 47.0312C42.7789 47.0648 42.7232 47.0872 42.6787 47.1096C42.4225 47.2329 42.1775 47.3673 41.9213 47.4793C41.409 47.7258 40.8744 47.9386 40.3509 48.1627C39.2818 48.5884 38.1903 48.9693 37.0765 49.2942C34.8602 49.9552 32.577 50.4369 30.2716 50.7506C29.7036 50.8514 29.1133 50.885 28.5341 50.9522C27.955 51.0306 27.3758 51.0642 26.7967 51.0979C26.2175 51.1315 25.6384 51.1875 25.0481 51.1875L23.3441 51.2323C22.1301 51.2099 20.8827 51.2099 19.769 51.1315L18.9114 51.0866L18.0427 51.0082C17.4635 50.9522 16.8732 50.9186 16.2941 50.829C15.559 50.6833 14.8239 50.5601 14.1 50.3697L13.0085 50.112L11.9282 49.8095C10.4358 49.3838 8.96564 48.9021 7.54005 48.3083C6.82725 48.0171 6.12559 47.7034 5.44621 47.3785C5.11209 47.2105 4.76682 47.0424 4.44384 46.8632C4.38815 46.8296 4.3436 46.8072 4.28791 46.7736C4.26564 46.6055 4.24337 46.4375 4.22109 46.2582C4.1654 45.7541 4.14313 45.2051 4.12085 44.6562C4.08744 43.5807 4.13199 42.438 4.24336 41.4858C4.36588 40.5112 4.62204 39.6709 5.00071 39.0548C5.39052 38.4498 5.88057 38.0353 6.6045 37.7328L6.43744 37.7777C8.47559 37.1951 10.3912 36.3773 12.1955 35.4139C14.8128 34.0135 16.5725 32.165 15.804 31.448C15.1135 30.7983 13.1756 31.3248 10.6363 32.4115C8.96564 33.1285 7.23934 33.6998 5.5019 34.0807C5.47962 34.0807 5.45735 34.0919 5.43507 34.1031L5.36825 34.1255C4.37701 34.4504 3.38578 34.9993 2.58389 35.7835C1.78199 36.5565 1.21398 37.52 0.835308 38.4722C0.456635 39.4357 0.256161 40.3991 0.144787 41.329C0.0890994 41.7995 0.0556871 42.2476 0.0334122 42.6957L0.0111377 43.3343L0 43.648V44.0176C0.0111374 44.7682 0.0334123 45.5188 0.111374 46.2918C0.144787 46.6839 0.189337 47.0648 0.267299 47.4905C0.345261 47.9162 0.423223 48.3307 0.634834 48.8909L0.645971 48.9133C0.779621 49.2494 1.00237 49.5407 1.33649 49.7423C1.59265 49.8991 1.78199 50.0112 1.9936 50.1232C2.20521 50.2464 2.40569 50.3473 2.6173 50.4593C3.02938 50.6833 3.45261 50.8626 3.86469 51.0642C4.7 51.4339 5.54645 51.7812 6.40403 52.0949C8.10806 52.7111 9.8455 53.2264 11.6052 53.6073C12.4851 53.8201 13.3649 53.9546 14.2559 54.1338C15.1469 54.2459 16.0268 54.4139 16.9289 54.4923C17.8199 54.5819 18.7109 54.6716 19.6242 54.7052L20.9829 54.7724L22.286 54.7836C22.2192 54.75 22.1524 54.7052 22.0855 54.6716C22.1524 54.7052 22.2192 54.75 22.286 54.7836C24.2351 55.0076 26.1841 55.0301 28.1555 54.974C30.1156 54.862 32.0981 54.6716 34.0583 54.2795C36.0185 53.8986 37.9564 53.3944 39.8609 52.7223C40.8076 52.3862 41.7543 52.0165 42.6898 51.5908C43.1576 51.3891 43.6142 51.1539 44.082 50.9186C44.3159 50.7954 44.5386 50.6833 44.7725 50.5489C45.0175 50.4145 45.218 50.3024 45.5187 50.112L45.5521 50.0896C45.9197 49.8543 46.2204 49.507 46.3763 49.0589C46.7327 48.0619 46.7884 47.4233 46.8664 46.7399C46.9332 46.0678 46.9666 45.4292 46.9889 44.7906C47 44.477 47 44.1633 47 43.8272L46.9555 42.8974Z" fill="#FFFDFD"/>
</svg>
