<svg width="46" height="46" viewBox="0 0 46 46" fill="none" xmlns="http://www.w3.org/2000/svg">
<path d="M35.6659 45.6714H10.333C8.66421 45.6679 7.06477 45.0034 5.88486 43.8232C4.70495 42.6431 4.04072 41.0435 4.0376 39.3747V20.5212C4.04072 18.8524 4.70495 17.2528 5.88486 16.0727C7.06477 14.8925 8.66421 14.228 10.333 14.2245H35.6659C37.3349 14.2276 38.9347 14.892 40.1149 16.0722C41.2951 17.2524 41.9595 18.8522 41.9626 20.5212V39.3747C41.9595 41.0437 41.2951 42.6435 40.1149 43.8237C38.9347 45.0039 37.3349 45.6683 35.6659 45.6714ZM10.333 17.5102C9.53479 17.5109 8.76946 17.8284 8.20514 18.393C7.64082 18.9575 7.32366 19.723 7.32331 20.5212V39.3747C7.32366 40.1729 7.64082 40.9384 8.20514 41.5029C8.76946 42.0675 9.53479 42.385 10.333 42.3857H35.6659C36.4642 42.385 37.2297 42.0675 37.7942 41.503C38.3588 40.9385 38.6762 40.173 38.6769 39.3747V20.5212C38.6762 19.7229 38.3588 18.9574 37.7942 18.3929C37.2297 17.8284 36.4642 17.5109 35.6659 17.5102H10.333Z" fill="white"/>
<path d="M33.5627 17.5103C33.127 17.5103 32.7091 17.3372 32.401 17.0291C32.0929 16.721 31.9198 16.3031 31.9198 15.8674V11.3134C31.9076 10.2887 31.6741 9.27876 31.2351 8.35276C30.7962 7.42676 30.1622 6.60661 29.3767 5.94851C27.6096 4.41404 25.3399 3.58322 22.9998 3.61434C18.0791 3.61434 14.0758 7.06828 14.0758 11.3134V15.8674C14.0758 16.3031 13.9027 16.721 13.5946 17.0291C13.2865 17.3372 12.8686 17.5103 12.4329 17.5103C11.9972 17.5103 11.5793 17.3372 11.2712 17.0291C10.9631 16.721 10.79 16.3031 10.79 15.8674V11.3134C10.7861 5.25719 16.264 0.328623 22.9998 0.328623C26.1425 0.294815 29.1881 1.41743 31.5571 3.48291C32.694 4.44716 33.609 5.64579 34.2394 6.99667C34.8698 8.34756 35.2007 9.81876 35.2095 11.3095V15.8635C35.21 16.0799 35.1677 16.2943 35.0852 16.4943C35.0026 16.6943 34.8813 16.8761 34.7283 17.0291C34.5753 17.1821 34.3935 17.3034 34.1935 17.386C33.9935 17.4686 33.7791 17.5108 33.5627 17.5103Z" fill="white"/>
<path d="M22.9998 33.8809C22.5641 33.8809 22.1462 33.7079 21.8381 33.3998C21.53 33.0917 21.3569 32.6738 21.3569 32.2381V27.8628C21.3569 27.4271 21.53 27.0092 21.8381 26.7012C22.1462 26.3931 22.5641 26.22 22.9998 26.22C23.4355 26.22 23.8534 26.3931 24.1615 26.7012C24.4696 27.0092 24.6426 27.4271 24.6426 27.8628V32.2447C24.6409 32.6792 24.4671 33.0954 24.1591 33.4021C23.8512 33.7088 23.4344 33.8809 22.9998 33.8809Z" fill="white"/>
</svg>
